<?xml-stylesheet href="s.css" type="text/css"?>

<svg  xmlns="http://www.w3.org/2000/svg" xmlns:xlink="http://www.w3.org/1999/xlink" 
	  >
   
   
    
<g>

	<path fill="#00AEEF" d="M92.333,52.333c-1.333-3-1.333-6-2-9c-0.666-4-3-7.667-3-11.667c0-5-4.999-10.333-1.333-12.667
		c5.667-4,1.334-11.666,6-16.333C76.667,6,84,8.333,76,13.333C69,17.667,62.667,16.667,54,17c-9,0.667-20,9.333-28.333,8.667
		c-7.333-1-14.667-11-22.667-9c10.333,12.667,15.333,26.333,16,43l0.333,0.667c-4,0.667-9,0-12.667,2c2.667,2.333,14,5,14.333,8
		c0.667,4-9.667,3.333-12.667,5.333c1,4.334,10,4.667,13.667,6.667C19.333,85.667,12.333,85,11,89c3,1.333,9,0.333,11.667,2
		c2.667,1.666,3.333,5.666,5,8.333L27.333,99c6,3.333,14.667,4,21.333,5.333c10,1.667,19.333,1.333,28-3.667
		c5.666-3.333,7.666-7.333,11.666-12c1.334-1.666,6-3.333,6.667-5c0.667-2.333-2.333-5.333-4-7.333C97.667,71,99,72,92.333,66
		c2.334-1,7.667-1.667,7.667-5c-0.333-2.667-6.333-5.333-8.333-6.667"/>
	<g>
		<path d="M94.744,51.669c-3.212-8.815-3.477-18.607-6.815-27.378c-0.854-2.24-0.972-2.84,0.845-4.37
			c1.222-1.029,1.849-2.673,2.397-4.112c1.423-3.725-0.172-8.089,2.597-11.375c1.6-1.897,0.11-4.758-2.433-4.178
			C85.731,1.534,80.906,2.75,78.057,7.971c-4.806,8.803-18.105,5.335-25.96,6.757c-4.365,0.79-8.395,2.575-12.432,4.354
			c-4.202,1.85-9.653,4.894-14.433,3.96c-4.186-0.818-8.036-4.413-11.646-6.517c-3.533-2.059-7.21-2.987-11.249-2.268
			c-2.048,0.364-2.15,2.869-1.103,4.178C6.48,24.998,10.55,32.207,13.2,40.192c1.393,4.198,2.249,8.583,2.8,12.963
			c0.348,2.767-0.089,5.913,1.175,8.44c0.72-1.254,1.439-2.508,2.159-3.762c-4.792,0.625-9.438,0.312-13.929,2.342
			c-1.902,0.859-1.323,3.322,0,4.316c3.739,2.812,8.72,3.6,12.697,6.05c0.186-0.085,0.371-0.169,0.556-0.254
			c-0.566,0.338-1.171,0.576-1.814,0.715c-1.317,0.392-2.713,0.574-4.064,0.81c-1.987,0.348-3.922,0.726-5.708,1.696
			c-0.917,0.498-1.526,1.808-1.149,2.823c2.314,6.231,9.684,5.729,14.815,8.16c-0.169-1.309-0.337-2.617-0.506-3.926
			c-3.331,3.4-9.085,2.353-11.391,7.173c-0.722,1.51-0.12,3.123,1.494,3.673c2.554,0.869,5.267,0.876,7.937,1.049
			c4.822,0.312,5.278,4.596,7.236,8.135c1.309-1.01,2.618-2.02,3.926-3.029c-0.111-0.111-0.222-0.223-0.333-0.333
			c-1.01,1.309-2.02,2.617-3.029,3.926c7.386,3.762,16.211,4.883,24.353,5.947c9.066,1.186,17.647,0.53,25.968-3.446
			c7.328-3.502,10.11-11.412,16.786-15.334c6.806-3.999,3.868-8.757-0.411-13.76c0,1.179,0,2.356,0,3.535
			c2.069-1.615,6.161-3.636,6.399-6.684c0.241-3.094-3.065-5.373-5.066-7.185c-0.367,1.393-0.735,2.785-1.103,4.179
			c3.679-1.379,8.654-2.132,9.413-6.746c0.784-4.775-6.354-7.559-9.482-9.491c-2.751-1.699-5.261,2.627-2.523,4.317
			c2.096,1.295,4.329,2.359,6.258,3.912c1.776,1.431-4.252,2.907-4.995,3.186c-1.645,0.617-2.61,2.813-1.103,4.179
			c0.341,0.31,3.205,3.419,3.647,2.899c-1.29,1.513-3.405,2.668-4.98,3.898c-1.133,0.884-0.8,2.602,0,3.535
			c2.333,2.729,4.041,4.368,0.358,6.532c-2.065,1.214-3.396,2.677-4.885,4.543c-4.32,5.413-8.188,9.461-14.933,11.869
			c-6.931,2.475-14.799,1.948-21.9,0.601c-6.516-1.236-13.278-1.749-19.278-4.804c-2.483-1.265-5.103,1.853-3.029,3.926
			c0.111,0.111,0.222,0.223,0.333,0.333c2.036,2.037,5.295-0.555,3.926-3.029c-1.604-2.899-2.585-7.654-5.897-9.229
			c-3.921-1.866-8.244-0.884-12.264-2.253c0.498,1.225,0.996,2.449,1.494,3.673c1.581-3.305,7.908-3.403,10.609-6.161
			c1.052-1.074,0.982-3.221-0.506-3.926c-2.913-1.381-11.312-1.928-12.518-5.174c-0.383,0.941-0.766,1.883-1.149,2.823
			c4.107-2.229,13.98-0.572,13.905-7.491c-0.065-5.994-11.914-7.409-15.572-10.158c0,1.438,0,2.878,0,4.316
			c3.546-1.603,7.627-1.165,11.405-1.658c1.907-0.249,3.078-1.923,2.159-3.762c-1.141-2.282-0.611-7.005-1.009-9.726
			c-0.667-4.559-1.898-9.012-3.447-13.344c-2.77-7.748-7.153-14.706-12.268-21.103c-0.368,1.393-0.735,2.786-1.103,4.178
			c8.411-1.496,14.666,8.869,23.154,9.124C36.451,28.491,44.577,20.556,54,19.5c8.95-1.003,17.898,0.814,25.413-5.549
			c1.595-1.351,2.659-2.896,3.637-4.719c1.611-3.003,6.699-3.489,9.615-4.154c-0.812-1.393-1.622-2.786-2.433-4.178
			c-2.421,2.871-3.046,5.902-3.316,9.583c-0.201,2.746-0.451,4.869-2.684,6.75c-1.442,1.214-1.849,2.469-2.075,4.279
			c-0.219,1.736,0.85,3.844,1.439,5.394c0.908,2.387,0.946,4.671,1.457,7.122c0.591,2.839,1.646,5.508,2.493,8.275
			c1.078,3.525,1.103,7.201,2.375,10.696C91.017,56.002,95.851,54.706,94.744,51.669L94.744,51.669z"/>
	</g>
</g>
<g>
	<g>
		<path d="M53.923,66.666c1.175,3.634,2.64,7.161,3.562,10.874c0.431,1.734,0.411,3.274,0.016,4.983
			c-0.147,0.588-0.341,1.159-0.583,1.715c-0.449,1.019,0.048,1.017-0.817-0.005c-2.086-2.465-5.605,1.091-3.535,3.535
			c3.848,4.546,7.891,1.45,9.525-3.119c2.311-6.464-1.394-13.271-3.347-19.313C57.756,62.281,52.928,63.588,53.923,66.666
			L53.923,66.666z"/>
	</g>
</g>
<g>
	<g>
		<path d="M57.508,77.595c1.373,2.985,2.243,6.33,4.541,8.78c2.803,2.99,6.909,1.72,9.88-0.217c2.69-1.752,0.187-6.083-2.523-4.316
			c-1.67,1.088-3.179,2.134-4.44,0.2c-1.381-2.116-2.09-4.686-3.14-6.971C60.479,72.145,56.171,74.687,57.508,77.595L57.508,77.595z
			"/>
	</g>
</g>
<g>
	<g>
		<path d="M33.333,55.167c5.96,0.431,9.879,4.857,11.922,10.165c1.146,2.976,5.982,1.685,4.821-1.33
			c-2.901-7.533-8.371-13.229-16.744-13.834C30.115,49.934,30.137,54.936,33.333,55.167L33.333,55.167z"/>
	</g>
</g>
<g>
	<g>
		<path d="M37.159,68.262c2.87-6.078,8.591-10.521,13.275-15.161c2.293-2.271-1.243-5.806-3.535-3.535
			C41.917,54.5,35.895,59.27,32.841,65.739C31.473,68.637,35.783,71.176,37.159,68.262L37.159,68.262z"/>
	</g>
</g>
<g>
	<g>
		<path d="M61.899,50.101c4.952,4.079,8.693,9.296,13,14c2.182,2.383,5.708-1.163,3.535-3.535c-4.308-4.705-8.049-9.922-13-14
			C62.966,44.533,59.408,48.05,61.899,50.101L61.899,50.101z"/>
	</g>
</g>
<g>
	<g>
		<path d="M67.166,60.667c0.515-4.745,5.606-7.98,7.659-12.071c1.442-2.873-2.87-5.406-4.316-2.523
			c-2.627,5.233-7.669,8.378-8.342,14.595C61.819,63.871,66.823,63.836,67.166,60.667L67.166,60.667z"/>
	</g>
</g>
</svg>
