<?xml version="1.0" encoding="utf-8"?>
<!-- Generator: Adobe Illustrator 16.0.0, SVG Export Plug-In . SVG Version: 6.00 Build 0)  -->
<!DOCTYPE svg PUBLIC "-//W3C//DTD SVG 1.1//EN" "http://www.w3.org/Graphics/SVG/1.1/DTD/svg11.dtd">
<svg version="1.1" id="trigger" xmlns="http://www.w3.org/2000/svg" xmlns:xlink="http://www.w3.org/1999/xlink" x="0px" y="0px"
	 width="180px" height="120px" viewBox="0 0 180 120" enable-background="new 0 0 180 120" xml:space="preserve">

<g transform="translate(2000,0)">
		<animateMotion  restart="always" calcMode="paced" additive="replace" accumulate="none" begin="1s" dur="0.5s" to="-2000,0" from="0,0" fill="freeze">
		</animateMotion>
	
		<animate  xlink:href="#blurEffect" attributeName="stdDeviation" restart="always" calcMode="linear" additive="replace" accumulate="none" begin="1.4s" dur="0.5s" to="0,0" from="10,1" fill="freeze">
		</animate>
   
<g id="background">

	<animateMotion from="0,0" to="200,0" dur="0.2s" fill="freeze" begin="trigger.click" />
		
	<g>
		<g>
			<path fill="#52CEFF" d="M56.854,28.821c-9.602,7.857-20.111,14.507-29.71,22.369c-6.92,5.667-17.652,13.429-18.406,23.101
				c-0.06,0.766,1.72,0.999,2.092,1.018c9.294,0.449,18.946-4.562,27.749-7.094c5.765-1.658,11.587-2.994,17.441-4.287
				c5.111-1.129,10.331-2.398,15.599-2.029c-0.263-0.979-0.526-1.962-0.789-2.942c-8.981,6.482-17.118,13.931-24.765,21.929
				c-3.894,4.071-7.741,8.182-11.512,12.367c-3.467,3.852-7.188,10.039-11.781,12.582c-1.059,0.586-3.934,2.629-1.316,3.403
				c2.483,0.733,5.936-0.165,8.129-1.379c4.475-2.478,7.208-5.89,10.568-9.636c4.185-4.664,8.348-9.346,12.645-13.905
				c8.393-8.914,17.065-17.433,27.016-24.615c1.797-1.296,1.527-2.78-0.789-2.942c-9.849-0.69-19.566,1.985-29.103,4.084
				c-5.958,1.312-11.831,2.996-17.675,4.735c-2.8,0.833-5.606,1.669-8.381,2.585c-1.565,0.518-4.014,2.083-5.63,2.006
				c0.697,0.338,1.395,0.678,2.092,1.018c0.367-4.692,4.138-8.344,7.281-11.473c3.55-3.533,7.344-6.865,11.256-9.99
				c8.775-7.007,18.278-13.04,26.974-20.155c1.672-1.368,1.627-2.742-0.789-2.943C62.484,26.412,58.891,27.155,56.854,28.821
				L56.854,28.821z"/>
		</g>
	</g>
	<g>
		<g>
			<path fill="#52CEFF" d="M55.086,42.337c1.715,4.692,4.535,9.092,6.616,13.65c2.562,5.616,4.781,11.378,7.333,17
				c2.363,5.206,4.977,10.285,7.871,15.217c2.195,3.74,4.469,7.349,8.394,9.374c2.764,1.426,9.045-0.674,10.446-3.383
				c1.396-2.697,0.708-5.369,0.513-8.275c-0.295-4.338,0.016-8.771,0.424-13.09c0.828-8.705,2.938-17.257,5.601-25.566
				c5.651-17.657,14.733-34.167,24.703-49.717c2.498-3.897-8.937-2.25-10.625,0.384c-9.685,15.103-18.356,30.826-24.437,47.747
				c-2.97,8.266-5.08,16.819-6.332,25.508c-0.605,4.197-0.869,8.443-0.979,12.682c-0.096,3.657,1.333,8.823-0.37,12.114
				c3.481-1.128,6.964-2.255,10.447-3.384c-3.771-1.944-6.138-7.336-8.112-10.827c-2.8-4.95-5.182-10.134-7.499-15.323
				c-2.003-4.488-3.787-9.073-5.787-13.564c-2.042-4.588-4.897-8.949-6.616-13.65C65.453,35.884,54.003,39.375,55.086,42.337
				L55.086,42.337z"/>
		</g>
	</g>
	<g>
		<g>
			<path fill="#52CEFF" d="M130.203,30.368c-8.849,3.993-38.29,13.226-31.92,27.644c3.185,7.207,14.403,5.133,20.276,3.896
				c7.623-1.604,15.229-4.999,21.979-8.844c1.32-0.752,3.735-2.954,1.174-3.942c-2.494-0.961-5.951-0.024-8.166,1.237
				c-5.188,2.955-21.242,12.229-24.281,2.949c-3.146-9.6,19.356-16.314,25.299-18.995c1.014-0.457,5.104-2.43,3.232-4.128
				C136.022,28.578,132.076,29.523,130.203,30.368L130.203,30.368z"/>
		</g>
	</g>
	<g>
		<g>
			<path fill="#52CEFF" d="M122.492,51.797c6.569-1.303,12.97-3.199,19.382-5.113c5.479-1.635,11.045-4.088,16.779-4.517
				c-1.688-0.896-3.373-1.791-5.059-2.687c-0.334,2.353-1.707,4.18-2.987,6.122c-1.569,2.381-2.775,5.049-4.078,7.583
				c-2.972,5.781-5.666,11.699-8.11,17.722c-4.381,10.791-9.261,23.853-5.775,35.504c1.277,4.274,12.845,1.081,11.593-3.104
				c-3.315-11.09,1.762-23.473,5.798-33.764c2.365-6.029,5.232-11.854,8.191-17.609c2.219-4.315,6.291-8.933,6.982-13.817
				c0.383-2.704-3.275-2.82-5.059-2.687c-6.326,0.473-12.164,2.853-18.196,4.613c-7.001,2.043-13.94,4.203-21.104,5.624
				c-1.769,0.351-5.621,2.206-4.975,4.619C116.563,52.854,120.72,52.149,122.492,51.797L122.492,51.797z"/>
		</g>
	</g>
</g>

<g id="foreground">
	<animateMotion from="0,0" to="-200,0" dur="0.2s" fill="freeze" begin="trigger.click" />
		
	<g>
		<g>
			<path stroke="#000000" stroke-miterlimit="10" d="M52.626,24.91c-9.602,7.857-20.111,14.507-29.71,22.369
				C15.996,52.946,5.264,60.708,4.51,70.38c-0.06,0.766,1.72,0.999,2.092,1.018c9.294,0.449,18.946-4.562,27.749-7.094
				c5.765-1.658,11.587-2.994,17.441-4.287c5.111-1.129,10.331-2.398,15.599-2.029c-0.263-0.979-0.526-1.962-0.789-2.942
				c-8.981,6.482-17.118,13.931-24.765,21.929c-3.894,4.071-7.741,8.182-11.512,12.367c-3.467,3.852-7.188,10.039-11.781,12.582
				c-1.059,0.586-3.934,2.629-1.316,3.403c2.483,0.733,5.936-0.165,8.129-1.379c4.475-2.478,7.208-5.89,10.568-9.636
				c4.185-4.664,8.348-9.346,12.645-13.905c8.393-8.914,17.065-17.433,27.016-24.615c1.797-1.296,1.527-2.78-0.789-2.943
				c-9.849-0.69-19.566,1.986-29.103,4.084c-5.958,1.312-11.831,2.996-17.675,4.735c-2.8,0.833-5.606,1.669-8.381,2.585
				c-1.565,0.518-4.014,2.083-5.63,2.006c0.697,0.338,1.395,0.678,2.092,1.018c0.367-4.692,4.138-8.344,7.281-11.473
				c3.55-3.534,7.344-6.866,11.256-9.99c8.775-7.008,18.278-13.04,26.974-20.156c1.672-1.368,1.627-2.742-0.789-2.943
				C58.256,22.501,54.663,23.244,52.626,24.91L52.626,24.91z"/>
		</g>
	</g>
	<g>
		<g>
			<path stroke="#000000" stroke-miterlimit="10" d="M50.858,38.426c1.715,4.692,4.535,9.092,6.616,13.65
				c2.562,5.616,4.781,11.378,7.333,17c2.363,5.206,4.977,10.285,7.871,15.217c2.195,3.74,4.469,7.349,8.393,9.374
				c2.764,1.426,9.045-0.674,10.446-3.383c1.396-2.697,0.709-5.369,0.514-8.275c-0.295-4.338,0.016-8.771,0.424-13.09
				c0.828-8.705,2.938-17.257,5.6-25.567c5.652-17.657,14.734-34.167,24.703-49.717c2.498-3.897-8.936-2.25-10.625,0.384
				c-9.684,15.103-18.355,30.826-24.436,47.747c-2.97,8.266-5.081,16.819-6.333,25.508c-0.605,4.197-0.868,8.443-0.978,12.682
				c-0.096,3.657,1.333,8.823-0.37,12.114c3.482-1.128,6.964-2.255,10.447-3.384c-3.771-1.944-6.137-7.336-8.112-10.827
				c-2.8-4.95-5.182-10.134-7.499-15.323c-2.003-4.488-3.787-9.073-5.787-13.565c-2.042-4.588-4.897-8.948-6.616-13.65
				C61.225,31.973,49.775,35.464,50.858,38.426L50.858,38.426z"/>
		</g>
	</g>
	<g>
		<g>
			<path stroke="#000000" stroke-miterlimit="10" d="M125.975,26.457c-8.848,3.993-38.29,13.226-31.92,27.644
				c3.186,7.207,14.404,5.132,20.277,3.896c7.623-1.604,15.229-4.999,21.979-8.844c1.32-0.752,3.734-2.954,1.174-3.942
				c-2.494-0.961-5.951-0.025-8.166,1.237c-5.189,2.955-21.242,12.229-24.281,2.95c-3.146-9.601,19.355-16.315,25.299-18.996
				c1.014-0.457,5.104-2.43,3.232-4.128C131.795,24.667,127.848,25.612,125.975,26.457L125.975,26.457z"/>
		</g>
	</g>
	<g>
		<g>
			<path stroke="#000000" stroke-miterlimit="10" d="M118.264,47.886c6.57-1.303,12.971-3.199,19.383-5.114
				c5.479-1.635,11.045-4.088,16.779-4.517c-1.688-0.896-3.373-1.791-5.059-2.687c-0.334,2.353-1.707,4.18-2.988,6.122
				c-1.568,2.381-2.775,5.049-4.078,7.583c-2.971,5.781-5.666,11.699-8.109,17.721c-4.381,10.791-9.262,23.853-5.775,35.504
				c1.277,4.274,12.844,1.081,11.592-3.104c-3.314-11.09,1.762-23.473,5.799-33.764c2.365-6.029,5.232-11.854,8.191-17.61
				c2.219-4.315,6.291-8.932,6.982-13.817c0.383-2.704-3.275-2.82-5.059-2.687c-6.326,0.473-12.164,2.853-18.197,4.613
				c-7,2.043-13.939,4.203-21.104,5.624c-1.77,0.351-5.621,2.206-4.975,4.619C112.336,48.942,116.492,48.238,118.264,47.886
				L118.264,47.886z"/>
		</g>
	</g>
</g></g>
</svg>
